<svg width="115" height="64" viewBox="0 0 115 64" fill="none" xmlns="http://www.w3.org/2000/svg">
<g clip-path="url(#clip0_186_41314)">
<path d="M0 0V8.20962H8.21923V31.1146H17.4946V8.20962H25.6627V0H0Z" fill="white"/>
<path d="M37.4744 9.23582L40.5041 19.2653H34.4447L37.4744 9.23582ZM31.6416 0L20.3489 31.1146H30.8595L31.9632 27.4749H42.9819L44.0856 31.1146H54.5999L43.3035 0H31.6416Z" fill="white"/>
<path d="M56.2773 0V31.1146H77.1635V22.905H65.5564V0H56.2773Z" fill="white"/>
<path d="M0 33.0637V41.2733H8.21923V64.1746H17.4946V41.2733H25.6627V33.0637H0Z" fill="white"/>
<path d="M27.8005 33.0637V64.1746H51.0293V55.965H37.0723V52.5616H50.7077V44.3483H37.0723V41.2733H51.0293V33.0637H27.8005Z" fill="white"/>
<path d="M105.224 33.0637V44.0714H94.2488V33.0637H84.9734V64.1746H94.2488V52.281H105.224V64.1746H114.495V33.0637H105.224Z" fill="white"/>
<path d="M52.5972 48.6449C52.5972 58.2056 59.8516 64.7356 69.4449 64.7356C77.4778 64.7356 81.5709 59.7892 83.3581 55.6364L75.3691 51.9081C74.587 54.3333 72.1969 56.4337 69.4449 56.4337C64.9936 56.4337 62.0115 52.9823 62.0115 48.6449C62.0115 44.3076 64.9936 40.8561 69.4449 40.8561C72.1969 40.8561 74.587 42.9528 75.3691 45.3744L83.3581 41.5981C81.5161 37.3087 77.4778 32.5505 69.4449 32.5505C59.8516 32.5505 52.5972 39.0326 52.5972 48.6449Z" fill="white"/>
</g>
<defs>
<clipPath id="clip0_186_41314">
<rect width="114.495" height="64" fill="white"/>
</clipPath>
</defs>
</svg>
